<svg xmlns="http://www.w3.org/2000/svg" xmlns:xlink="http://www.w3.org/1999/xlink" preserveAspectRatio="xMidYMid" width="300" height="300" viewBox="0 0 300 300">
  <defs>
    <style>
      .cls-1 {
        fill: #000;
      }

      .cls-1, .cls-2, .cls-3, .cls-4, .cls-5 {
        fill-rule: evenodd;
      }

      .cls-2 {
        fill: #00a651;
        opacity: 0.5;
      }

      .cls-3, .cls-8 {
        fill: #2857a8;
      }

      .cls-4, .cls-9 {
        fill: #9e005d;
      }

      .cls-10, .cls-5 {
        fill: #ed1c24;
      }

      .cls-10, .cls-6, .cls-7, .cls-8, .cls-9 {
        font-size: 16px;
      }

      .cls-10, .cls-7, .cls-8, .cls-9 {
        text-anchor: middle;
      }

      .cls-7 {
        font-family: "Arial";
      }

      .cls-10, .cls-8, .cls-9 {
        font-family: "Arial-BoldMT";
        font-weight: bold;
      }
    </style>
  </defs>
  <path d="M418.000,276.000 L153.000,276.000 L153.000,479.000 L152.000,479.000 L152.000,276.000 L-118.000,276.000 L-118.000,275.000 L152.000,275.000 L152.000,1.000 L153.000,1.000 L153.000,275.000 L418.000,275.000 L418.000,276.000 Z" class="cls-1"/>
  <path d="M154.000,275.000 C154.000,275.000 177.000,275.000 204.000,275.000 C204.000,261.855 198.881,249.901 190.519,241.004 C159.236,272.144 154.000,275.000 154.000,275.000 Z" class="cls-2"/>
  <path d="M154.746,276.789 L151.254,273.211 L183.307,241.940 L180.688,239.255 L194.000,235.000 L189.417,248.203 L186.799,245.519 L154.746,276.789 Z" class="cls-3"/>
  <path d="M193.343,234.698 C193.343,234.698 209.607,218.435 228.698,199.343 C219.404,190.048 207.331,185.215 195.127,184.837 C195.026,228.977 193.343,234.698 193.343,234.698 Z" class="cls-2"/>
  <path d="M196.000,235.000 L191.000,235.000 L191.000,169.500 L187.250,169.500 L193.500,157.000 L199.750,169.500 L196.000,169.500 L196.000,235.000 Z" class="cls-4"/>
  <path d="M192.438,159.364 C192.438,159.364 192.728,136.365 193.068,109.368 C179.924,109.202 167.906,114.170 158.905,122.419 C189.648,154.092 192.438,159.364 192.438,159.364 Z" class="cls-2"/>
  <path d="M194.768,155.232 L191.232,158.768 L122.071,89.607 L119.419,92.258 L115.000,79.000 L128.258,83.419 L125.607,86.071 L194.768,155.232 Z" class="cls-5"/>
  <text x="188" y="269" class="cls-6"><tspan x="188" class="cls-7">45°</tspan></text>
  <text x="211" y="206" class="cls-6"><tspan x="211" class="cls-7">45°</tspan></text>
  <text x="181" y="128" class="cls-6"><tspan x="181" class="cls-7">45°</tspan></text>
  <text x="162" y="251" class="cls-6"><tspan x="162" class="cls-8">2</tspan></text>
  <text x="180" y="201" class="cls-6"><tspan x="180" class="cls-9">3</tspan></text>
  <text x="140" y="134" class="cls-6"><tspan x="140" class="cls-10">5</tspan></text>
</svg>
